<?xml version="1.0" encoding="utf-8"?>
<!-- Generator: Adobe Illustrator 17.0.0, SVG Export Plug-In . SVG Version: 6.00 Build 0)  -->
<!DOCTYPE svg PUBLIC "-//W3C//DTD SVG 1.1//EN" "http://www.w3.org/Graphics/SVG/1.1/DTD/svg11.dtd">
<svg version="1.1" id="Layer_1" xmlns="http://www.w3.org/2000/svg" xmlns:xlink="http://www.w3.org/1999/xlink" x="0px" y="0px"
	 width="24px" height="24px" viewBox="0 0 24 24" enable-background="new 0 0 24 24" xml:space="preserve">
<title>Bundles</title>
<desc>Created with Sketch.</desc>
<path fill="#1FAB5B" d="M23,0H1C0.447,0,0,0.447,0,1v22c0,0.553,0.447,1,1,1h22c0.553,0,1-0.447,1-1V1C24,0.447,23.553,0,23,0z
	 M22,22H2v-8h20V22z M22,13H2v-2h20V13z M22,10H2V8h20V10z M22,7H2V5h20V7z M22,4H2V2h20V4z"/>
<path fill="#1FAB5B" d="M9,15v3h6v-3H9z M14,17h-4v-1h4V17z"/>
</svg>
