<?xml version="1.0" encoding="utf-8"?>
<!-- Generator: Adobe Illustrator 17.0.0, SVG Export Plug-In . SVG Version: 6.00 Build 0)  -->
<!DOCTYPE svg PUBLIC "-//W3C//DTD SVG 1.1//EN" "http://www.w3.org/Graphics/SVG/1.1/DTD/svg11.dtd">
<svg version="1.1" id="Layer_1" xmlns="http://www.w3.org/2000/svg" xmlns:xlink="http://www.w3.org/1999/xlink" x="0px" y="0px"
	 width="24px" height="24px" viewBox="0 0 24 24" enable-background="new 0 0 24 24" xml:space="preserve">
<title>Coupons</title>
<desc>Created with Sketch.</desc>
<g id="Dashboard">
	<g id="Nav" transform="translate(-43.000000, -579.000000)">
		<g transform="translate(-6.000000, 0.000000)">
			<g id="Nav---Active-Links-and-Icons" transform="translate(0.000000, 80.000000)">
				<g id="Active-Coupons" transform="translate(0.000000, 476.000000)">
					<g id="Coupons" transform="translate(49.000000, 22.000000)">
						<g id="Group-3" transform="translate(0.000000, 0.993500)">
							<path id="Fill-1" fill="#285CAD" d="M21.998,9.134L9.408,21.632l-6.99-7.036l12.453-12.59h7.127V9.134z M15.159,0.006
								c-0.951,0-1.372,0.44-1.964,1.032L0.288,13.969c-0.384,0.385-0.384,1.018,0,1.402l8.333,8.34
								c0.385,0.384,1.005,0.387,1.39,0.003l12.979-12.93c0.69-0.69,1.008-1.202,1.008-1.938V0.006H15.159z"/>
						</g>
						<polygon id="Fill-4" fill="#285CAD" points="9.263,19.849 5.096,15.683 5.79,14.989 9.957,19.154 						"/>
						<polygon id="Fill-6" fill="#285CAD" points="10.698,18.479 6.531,14.312 7.225,13.618 11.392,17.785 						"/>
						<polygon id="Fill-8" fill="#285CAD" points="12.087,17.089 7.919,12.922 8.613,12.228 12.781,16.395 						"/>
						<path id="Fill-10" fill="#285CAD" d="M17.998,6c0.553,0,1,0.447,1,1s-0.447,1-1,1s-1-0.447-1-1S17.445,6,17.998,6 M17.998,9
							c1.104,0,2-0.896,2-2s-0.896-2-2-2s-2,0.896-2,2S16.894,9,17.998,9"/>
					</g>
				</g>
			</g>
		</g>
	</g>
</g>
</svg>
