<?xml version="1.0" encoding="utf-8"?>
<!-- Generator: Adobe Illustrator 17.0.0, SVG Export Plug-In . SVG Version: 6.00 Build 0)  -->
<!DOCTYPE svg PUBLIC "-//W3C//DTD SVG 1.1//EN" "http://www.w3.org/Graphics/SVG/1.1/DTD/svg11.dtd">
<svg version="1.1" id="Layer_1" xmlns="http://www.w3.org/2000/svg" xmlns:xlink="http://www.w3.org/1999/xlink" x="0px" y="0px"
	 width="22px" height="24px" viewBox="0 0 22 24" enable-background="new 0 0 22 24" xml:space="preserve">
<title>Courses</title>
<desc>Created with Sketch.</desc>
<path fill="#285CAD" d="M21,0H1C0.447,0,0,0.447,0,1v22c0,0.553,0.447,1,1,1h20c0.552,0,1-0.447,1-1V1C22,0.447,21.552,0,21,0z
	 M20,22H2v-2h18V22z M20,19H2V2h18V19z"/>
<rect x="2" y="2" fill="none" width="18" height="17"/>
<path fill="#285CAD" d="M17,5H5v7h12V5z M16,11H6V6h10V11z"/>
<rect x="6" y="6" fill="none" width="10" height="5"/>
<rect x="7" y="7" fill="#FFFFFF" width="8" height="1"/>
<rect x="7" y="9" fill="#FFFFFF" width="8" height="1"/>
<rect x="7" y="7" fill="#285CAD" width="8" height="1"/>
<rect x="7" y="9" fill="#285CAD" width="8" height="1"/>
</svg>
