<?xml version="1.0" encoding="UTF-8"?>
<svg width="24px" height="24px" viewBox="0 0 24 24" version="1.1" xmlns="http://www.w3.org/2000/svg" xmlns:xlink="http://www.w3.org/1999/xlink">
    <!-- Generator: Sketch 52.5 (67469) - http://www.bohemiancoding.com/sketch -->
    <title>Customers</title>
    <desc>Created with Sketch.</desc>
    <g id="Dashboard" stroke="none" stroke-width="1" fill="none" fill-rule="evenodd" opacity="0.498018569">
        <g transform="translate(-43.000000, -173.000000)" fill="#4A4A4A" id="Nav">
            <g transform="translate(-6.000000, 0.000000)">
                <g id="Nav-Icons" transform="translate(49.000000, 106.000000)">
                    <path d="M22,84.002 L16.076,84.002 C15.094,83.239 14.039,82.744 12.976,82.486 C13.986,81.59 14.685,80.36 14.912,78.97 C14.911,78.982 14.912,78.993 14.91,79.005 C14.94,79.004 14.969,79.001 15,79.001 C20,79.001 22,82.001 22,82.001 L22,84.002 Z M16,89.002 L2,89.002 L2,87.002 C2,87.002 4,84.002 9,84.002 C14,84.002 16,87.002 16,87.002 L16,89.002 Z M5,78.002 C5,75.793 6.791,74.002 9,74.002 C11.209,74.002 13,75.793 13,78.002 C13,80.211 11.209,82.002 9,82.002 C6.791,82.002 5,80.211 5,78.002 Z M15,69.002 C17.209,69.002 19,70.793 19,73.002 C19,75.211 17.255,77.002 15.046,77.002 C15.015,77.002 15,76.994 15,76.992 L15,76.994 C15,74.854 13.1,73.103 11.109,72.374 C11.412,70.465 13.006,69.002 15,69.002 Z M18.977,77.486 C20.215,76.386 21,74.787 21,73.002 C21,69.689 18.313,67 15,67 C12.026,67 9.564,69.002 9.09,72.002 L9.092,72.002 C9.061,72.002 9.031,72 9,72 C5.687,72 3,74.688 3,78.001 C3,79.786 3.785,81.387 5.023,82.485 C3.22,82.923 1.478,84.043 0,86.002 L0,90.002 C0,90.555 0.447,91.002 1,91.002 L17,91.002 C17.553,91.002 18,90.555 18,90.002 L18,86.002 L23,86.002 C23.553,86.002 24,85.555 24,85.002 L24,81.002 C22.562,79.023 20.779,77.924 18.977,77.486 Z" id="Customers"></path>
                </g>
            </g>
        </g>
    </g>
</svg>