<?xml version="1.0" encoding="utf-8"?>
<!-- Generator: Adobe Illustrator 17.0.0, SVG Export Plug-In . SVG Version: 6.00 Build 0)  -->
<!DOCTYPE svg PUBLIC "-//W3C//DTD SVG 1.1//EN" "http://www.w3.org/Graphics/SVG/1.1/DTD/svg11.dtd">
<svg version="1.1" id="Layer_1" xmlns="http://www.w3.org/2000/svg" xmlns:xlink="http://www.w3.org/1999/xlink" x="0px" y="0px"
	 width="24px" height="23px" viewBox="0 0 24 23" enable-background="new 0 0 24 23" xml:space="preserve">
<title>Dashboard</title>
<desc>Created with Sketch.</desc>
<g id="Dashboard_1_" opacity="0.498">
	<g id="Nav" transform="translate(-43.000000, -106.000000)">
		<g transform="translate(-6.000000, 0.000000)">
			<g id="Nav---Active-Links-and-Icons" transform="translate(0.000000, 80.000000)">
				<g id="Active-Dash">
					<g id="Dashboard" transform="translate(49.000000, 26.000000)">
						<path id="Fill-1" fill="#285CAD" d="M2,5h3V2H2V5z M7,1.125C7,0.504,6.496,0,5.875,0h-4.75C0.504,0,0,0.504,0,1.125v4.75
							C0,6.496,0.504,7,1.125,7h4.75C6.496,7,7,6.496,7,5.875V1.125z"/>
						<path id="Fill-3" fill="#285CAD" d="M10,5h12V2H10V5z M24,1.125C24,0.504,23.496,0,22.875,0H9.125C8.504,0,8,0.504,8,1.125
							v4.75C8,6.496,8.504,7,9.125,7h13.75C23.496,7,24,6.496,24,5.875V1.125z"/>
						<path id="Fill-4" fill="#285CAD" d="M2,13h3v-3H2V13z M7,9.125C7,8.504,6.496,8,5.875,8h-4.75C0.504,8,0,8.504,0,9.125v4.75
							C0,14.496,0.504,15,1.125,15h4.75C6.496,15,7,14.496,7,13.875V9.125z"/>
						<path id="Fill-5" fill="#285CAD" d="M10,13h12v-3H10V13z M24,9.125C24,8.504,23.496,8,22.875,8H9.125C8.504,8,8,8.504,8,9.125
							v4.75C8,14.496,8.504,15,9.125,15h13.75C23.496,15,24,14.496,24,13.875V9.125z"/>
						<path id="Fill-6" fill="#285CAD" d="M2,21h3v-3H2V21z M7,17.125C7,16.504,6.496,16,5.875,16h-4.75C0.504,16,0,16.504,0,17.125
							v4.75C0,22.496,0.504,23,1.125,23h4.75C6.496,23,7,22.496,7,21.875V17.125z"/>
						<path id="Fill-7" fill="#285CAD" d="M10,21h12v-3H10V21z M24,17.125C24,16.504,23.496,16,22.875,16H9.125
							C8.504,16,8,16.504,8,17.125v4.75C8,22.496,8.504,23,9.125,23h13.75C23.496,23,24,22.496,24,21.875V17.125z"/>
					</g>
				</g>
			</g>
		</g>
	</g>
</g>
</svg>
