<?xml version="1.0" encoding="UTF-8"?>
<svg width="24px" height="23px" viewBox="0 0 24 23" version="1.1" xmlns="http://www.w3.org/2000/svg" xmlns:xlink="http://www.w3.org/1999/xlink">
    <!-- Generator: Sketch 52.5 (67469) - http://www.bohemiancoding.com/sketch -->
    <title>Dashboard</title>
    <desc>Created with Sketch.</desc>
    <g id="Dashboard" stroke="none" stroke-width="1" fill="none" fill-rule="evenodd" opacity="0.498018569">
        <g transform="translate(-43.000000, -106.000000)" fill="#4A4A4A" id="Nav">
            <g transform="translate(-6.000000, 0.000000)">
                <g id="Nav-Icons" transform="translate(49.000000, 106.000000)">
                    <g id="Dashboard">
                        <path d="M2,5 L5,5 L5,2 L2,2 L2,5 Z M7,1.125 C7,0.504 6.496,0 5.875,0 L1.125,0 C0.504,0 0,0.504 0,1.125 L0,5.875 C0,6.496 0.504,7 1.125,7 L5.875,7 C6.496,7 7,6.496 7,5.875 L7,1.125 Z" id="Fill-1"></path>
                        <path d="M10,5 L22,5 L22,2 L10,2 L10,5 Z M24,1.125 C24,0.504 23.496,0 22.875,0 L9.125,0 C8.504,0 8,0.504 8,1.125 L8,5.875 C8,6.496 8.504,7 9.125,7 L22.875,7 C23.496,7 24,6.496 24,5.875 L24,1.125 Z" id="Fill-3"></path>
                        <path d="M2,13 L5,13 L5,10 L2,10 L2,13 Z M7,9.125 C7,8.504 6.496,8 5.875,8 L1.125,8 C0.504,8 0,8.504 0,9.125 L0,13.875 C0,14.496 0.504,15 1.125,15 L5.875,15 C6.496,15 7,14.496 7,13.875 L7,9.125 Z" id="Fill-4"></path>
                        <path d="M10,13 L22,13 L22,10 L10,10 L10,13 Z M24,9.125 C24,8.504 23.496,8 22.875,8 L9.125,8 C8.504,8 8,8.504 8,9.125 L8,13.875 C8,14.496 8.504,15 9.125,15 L22.875,15 C23.496,15 24,14.496 24,13.875 L24,9.125 Z" id="Fill-5"></path>
                        <path d="M2,21 L5,21 L5,18 L2,18 L2,21 Z M7,17.125 C7,16.504 6.496,16 5.875,16 L1.125,16 C0.504,16 0,16.504 0,17.125 L0,21.875 C0,22.496 0.504,23 1.125,23 L5.875,23 C6.496,23 7,22.496 7,21.875 L7,17.125 Z" id="Fill-6"></path>
                        <path d="M10,21 L22,21 L22,18 L10,18 L10,21 Z M24,17.125 C24,16.504 23.496,16 22.875,16 L9.125,16 C8.504,16 8,16.504 8,17.125 L8,21.875 C8,22.496 8.504,23 9.125,23 L22.875,23 C23.496,23 24,22.496 24,21.875 L24,17.125 Z" id="Fill-7"></path>
                    </g>
                </g>
            </g>
        </g>
    </g>
</svg>