<?xml version="1.0" encoding="utf-8"?>
<!-- Generator: Adobe Illustrator 17.0.0, SVG Export Plug-In . SVG Version: 6.00 Build 0)  -->
<!DOCTYPE svg PUBLIC "-//W3C//DTD SVG 1.1//EN" "http://www.w3.org/Graphics/SVG/1.1/DTD/svg11.dtd">
<svg version="1.1" id="Layer_1" xmlns="http://www.w3.org/2000/svg" xmlns:xlink="http://www.w3.org/1999/xlink" x="0px" y="0px"
	 width="24px" height="24px" viewBox="0 0 24 24" enable-background="new 0 0 24 24" xml:space="preserve">
<title>Faculty</title>
<desc>Created with Sketch.</desc>
<g id="Dashboard">
	<g id="Nav" transform="translate(-43.000000, -645.000000)">
		<g transform="translate(-6.000000, 0.000000)">
			<g id="Nav---Active-Links-and-Icons" transform="translate(0.000000, 80.000000)">
				<g id="Active-Faculty" transform="translate(0.000000, 544.000000)">
					<g id="Faculty" transform="translate(49.000000, 21.000000)">
						<path id="Fill-1" fill="#285CAD" d="M12,2c3.004,0,5.486,2.211,5.924,5.094c-1.441-0.645-2.715-1.596-3.697-2.809
							C14,4,13.86,3.844,13.627,3.459c-0.268,0.322-0.424,0.51-0.705,0.748c-1.777,1.707-4.18,2.765-6.831,2.789
							C6.569,4.161,9.029,2,12,2z M8.686,13C7.069,11.926,6,10.088,6,8c2.914,0,5.555-1.141,7.523-2.99
							c1.178,1.423,2.713,2.529,4.463,3.211c-0.074,1.995-1.112,3.743-2.672,4.779h2.926C19.339,11.63,20,9.893,20,8
							c0-4.418-3.582-8-8-8S4,3.582,4,8c0,1.893,0.661,3.63,1.76,5H8.686z"/>
						<path id="Fill-3" fill="#285CAD" d="M22,22H2v-2c0-2.209,1.791-4,4-4h12c2.209,0,4,1.791,4,4V22z M18,14H6
							c-3.313,0-6,2.687-6,6v3c0,0.553,0.447,1,1,1h22c0.553,0,1-0.447,1-1v-3C24,16.687,21.313,14,18,14z"/>
					</g>
				</g>
			</g>
		</g>
	</g>
</g>
</svg>
