<?xml version="1.0" encoding="UTF-8"?>
<svg width="24px" height="24px" viewBox="0 0 24 24" version="1.1" xmlns="http://www.w3.org/2000/svg" xmlns:xlink="http://www.w3.org/1999/xlink">
    <!-- Generator: Sketch 52.5 (67469) - http://www.bohemiancoding.com/sketch -->
    <title>landing Pages</title>
    <desc>Created with Sketch.</desc>
    <g id="Dashboard" stroke="none" stroke-width="1" fill="none" fill-rule="evenodd" opacity="0.498018569">
        <g transform="translate(-43.000000, -511.000000)" fill="#4A4A4A" id="Nav">
            <g transform="translate(-6.000000, 0.000000)">
                <g id="Nav-Icons" transform="translate(49.000000, 106.000000)">
                    <path d="M12.0085,423.19725 L2.7515,417.01425 L4.2085,416.05225 L11.3185,420.78025 C11.6995,421.03525 12.3165,421.03525 12.6975,420.78025 L19.8085,416.05125 L21.2665,417.01425 L12.0085,423.19725 Z M21.2675,420.97425 L12.0085,427.15725 L2.7515,420.97425 L4.1555,420.04625 L11.3185,424.80925 C11.6995,425.06425 12.3165,425.06425 12.6975,424.80925 L19.8615,420.04525 L21.2675,420.97425 Z M2.7515,412.98625 L12.0085,406.87225 L21.2675,412.98625 L12.0085,419.16925 L2.7515,412.98625 Z M23.7315,416.55625 L21.3915,415.00025 L23.7315,413.44425 C24.1135,413.19125 24.1135,412.78025 23.7315,412.52725 L12.6985,405.19125 C12.3175,404.93625 11.7005,404.93625 11.3195,405.19125 L0.2865,412.52725 C-0.0955,412.78025 -0.0955,413.19125 0.2865,413.44425 L2.6265,415.00025 L0.2865,416.55625 C-0.0955,416.80925 -0.0955,417.22025 0.2865,417.47325 L2.5745,418.99425 L0.2865,420.51525 C-0.0955,420.76825 -0.0955,421.17925 0.2865,421.43225 L11.3195,428.76825 C11.7005,429.02325 12.3175,429.02325 12.6985,428.76825 L23.7315,421.43225 C24.1135,421.17925 24.1135,420.76825 23.7315,420.51525 L21.4435,418.99425 L23.7315,417.47325 C24.1135,417.22025 24.1135,416.80925 23.7315,416.55625 Z" id="landing-Pages"></path>
                </g>
            </g>
        </g>
    </g>
</svg>