<?xml version="1.0" encoding="utf-8"?>
<!-- Generator: Adobe Illustrator 17.0.0, SVG Export Plug-In . SVG Version: 6.00 Build 0)  -->
<!DOCTYPE svg PUBLIC "-//W3C//DTD SVG 1.1//EN" "http://www.w3.org/Graphics/SVG/1.1/DTD/svg11.dtd">
<svg version="1.1" id="Layer_1" xmlns="http://www.w3.org/2000/svg" xmlns:xlink="http://www.w3.org/1999/xlink" x="0px" y="0px"
	 width="24px" height="24px" viewBox="0 0 24 24" enable-background="new 0 0 24 24" xml:space="preserve">
<title>landing Pages</title>
<desc>Created with Sketch.</desc>
<g id="Dashboard">
	<g id="Nav" transform="translate(-43.000000, -511.000000)">
		<g transform="translate(-6.000000, 0.000000)">
			<g id="Nav---Active-Links-and-Icons" transform="translate(0.000000, 80.000000)">
				<g id="Active-Landing-Pages" transform="translate(0.000000, 408.000000)">
					<path id="landing-Pages" fill="#285CAD" d="M61.008,41.197l-9.257-6.183l1.457-0.962l7.11,4.728
						c0.381,0.255,0.998,0.255,1.379,0l7.111-4.729l1.458,0.963L61.008,41.197z M70.268,38.974l-9.259,6.183l-9.257-6.183
						l1.404-0.928l7.163,4.763c0.381,0.255,0.998,0.255,1.379,0l7.164-4.764L70.268,38.974z M51.751,30.986l9.257-6.114l9.259,6.114
						l-9.259,6.183L51.751,30.986z M72.731,34.556L70.392,33l2.34-1.556c0.382-0.253,0.382-0.664,0-0.917l-11.033-7.336
						c-0.381-0.255-0.998-0.255-1.379,0l-11.033,7.336c-0.382,0.253-0.382,0.664,0,0.917L51.626,33l-2.34,1.556
						c-0.382,0.253-0.382,0.664,0,0.917l2.288,1.521l-2.288,1.521c-0.382,0.253-0.382,0.664,0,0.917l11.033,7.336
						c0.381,0.255,0.998,0.255,1.379,0l11.033-7.336c0.382-0.253,0.382-0.664,0-0.917l-2.288-1.521l2.288-1.521
						C73.114,35.22,73.114,34.809,72.731,34.556z"/>
				</g>
			</g>
		</g>
	</g>
</g>
</svg>
