<?xml version="1.0" encoding="UTF-8"?>
<svg width="16px" height="24px" viewBox="0 0 16 24" version="1.1" xmlns="http://www.w3.org/2000/svg" xmlns:xlink="http://www.w3.org/1999/xlink">
    <!-- Generator: Sketch 52.5 (67469) - http://www.bohemiancoding.com/sketch -->
    <title>Live Lectures</title>
    <desc>Created with Sketch.</desc>
    <defs>
        <polygon id="path-1" points="16 12.00005 16 24 0 24 0 12.00005 0 0.0001 16 0.0001"></polygon>
    </defs>
    <g id="Dashboard" stroke="none" stroke-width="1" fill="none" fill-rule="evenodd" opacity="0.498018569">
        <g transform="translate(-46.000000, -441.000000)" id="Nav">
            <g transform="translate(-6.000000, 0.000000)">
                <g id="Nav-Icons" transform="translate(49.000000, 106.000000)">
                    <g id="Live-Lectures" transform="translate(3.000000, 335.000000)">
                        <mask id="mask-2" fill="white">
                            <use xlink:href="#path-1"></use>
                        </mask>
                        <g id="Clip-2"></g>
                        <path d="M10,20.7061 L9,21.0001 L9,22.0001 C9,22.5531 8.553,23.0001 8,23.0001 C7.447,23.0001 7,22.5531 7,22.0001 L7,21.0001 L6,20.7061 C3.109,19.8461 1,17.1711 1,14.0001 L2,14.0001 C2,17.3131 4.687,20.0001 8,20.0001 C11.313,20.0001 14,17.3131 14,14.0001 L15,14.0001 C15,17.1711 12.891,19.8461 10,20.7061 Z M4,13.0001 L5.5,13.0001 C5.776,13.0001 6,12.7761 6,12.5001 C6,12.2241 5.776,12.0001 5.5,12.0001 L4,12.0001 L4,10.0001 L5.5,10.0001 C5.776,10.0001 6,9.7761 6,9.5001 C6,9.2241 5.776,9.0001 5.5,9.0001 L4,9.0001 L4,7.0001 L5.5,7.0001 C5.776,7.0001 6,6.7761 6,6.5001 C6,6.2241 5.776,6.0001 5.5,6.0001 L4,6.0001 C4,3.7911 5.791,2.0001 8,2.0001 C10.209,2.0001 12,3.7911 12,6.0001 L10.5,6.0001 C10.224,6.0001 10,6.2241 10,6.5001 C10,6.7761 10.224,7.0001 10.5,7.0001 L12,7.0001 L12,9.0001 L10.5,9.0001 C10.224,9.0001 10,9.2241 10,9.5001 C10,9.7761 10.224,10.0001 10.5,10.0001 L12,10.0001 L12,12.0001 L10.5,12.0001 C10.224,12.0001 10,12.2241 10,12.5001 C10,12.7761 10.224,13.0001 10.5,13.0001 L12,13.0001 L12,14.0001 C12,16.2091 10.209,18.0001 8,18.0001 C5.791,18.0001 4,16.2091 4,14.0001 L4,13.0001 Z M15,11.0001 L15,13.0001 L14,13.0001 L14,6.0001 C14,2.6871 11.313,0.0001 8,0.0001 C4.687,0.0001 2,2.6871 2,6.0001 L2,13.0001 L1,13.0001 L1,11.0001 L0,11.0001 L0,14.0001 C0,17.7261 2.552,20.8441 6,21.7321 L6,22.0001 C6,23.1041 6.896,24.0001 8,24.0001 C9.104,24.0001 10,23.1041 10,22.0001 L10,21.7321 C13.448,20.8431 16,17.7251 16,14.0001 L16,11.0001 L15,11.0001 Z" id="Fill-1" fill="#4A4A4A" mask="url(#mask-2)"></path>
                    </g>
                </g>
            </g>
        </g>
    </g>
</svg>