<?xml version="1.0" encoding="utf-8"?>
<!-- Generator: Adobe Illustrator 17.0.0, SVG Export Plug-In . SVG Version: 6.00 Build 0)  -->
<!DOCTYPE svg PUBLIC "-//W3C//DTD SVG 1.1//EN" "http://www.w3.org/Graphics/SVG/1.1/DTD/svg11.dtd">
<svg version="1.1" id="Layer_1" xmlns="http://www.w3.org/2000/svg" xmlns:xlink="http://www.w3.org/1999/xlink" x="0px" y="0px"
	 width="16px" height="24px" viewBox="0 0 16 24" enable-background="new 0 0 16 24" xml:space="preserve">
<title>Live Lectures</title>
<desc>Created with Sketch.</desc>
<g id="Dashboard">
	<g id="Nav" transform="translate(-46.000000, -441.000000)">
		<g transform="translate(-6.000000, 0.000000)">
			<g id="Nav---Active-Links-and-Icons" transform="translate(0.000000, 80.000000)">
				<g id="Active-Live-Lectures" transform="translate(0.000000, 340.000000)">
					<g id="Live-Lectures" transform="translate(52.000000, 21.000000)">
						<g id="Clip-2">
						</g>
						<defs>
							<filter id="Adobe_OpacityMaskFilter" filterUnits="userSpaceOnUse" x="0" y="0" width="16" height="24">
								<feColorMatrix  type="matrix" values="1 0 0 0 0  0 1 0 0 0  0 0 1 0 0  0 0 0 1 0"/>
							</filter>
						</defs>
						<mask maskUnits="userSpaceOnUse" x="0" y="0" width="16" height="24" id="mask-2">
							<g filter="url(#Adobe_OpacityMaskFilter)">
								<polygon id="path-1" fill="#FFFFFF" points="16,12 16,24 0,24 0,12 0,0 16,0 								"/>
							</g>
						</mask>
						<path id="Fill-1" mask="url(#mask-2)" fill="#285CAD" d="M10,20.706L9,21v1c0,0.553-0.447,1-1,1s-1-0.447-1-1v-1l-1-0.294
							C3.109,19.846,1,17.171,1,14h1c0,3.313,2.687,6,6,6s6-2.687,6-6h1C15,17.171,12.891,19.846,10,20.706z M4,13h1.5
							C5.776,13,6,12.776,6,12.5S5.776,12,5.5,12H4v-2h1.5C5.776,10,6,9.776,6,9.5S5.776,9,5.5,9H4V7h1.5C5.776,7,6,6.776,6,6.5
							S5.776,6,5.5,6H4c0-2.209,1.791-4,4-4s4,1.791,4,4h-1.5C10.224,6,10,6.224,10,6.5S10.224,7,10.5,7H12v2h-1.5
							C10.224,9,10,9.224,10,9.5s0.224,0.5,0.5,0.5H12v2h-1.5c-0.276,0-0.5,0.224-0.5,0.5s0.224,0.5,0.5,0.5H12v1
							c0,2.209-1.791,4-4,4s-4-1.791-4-4V13z M15,11v2h-1V6c0-3.313-2.687-6-6-6S2,2.687,2,6v7H1v-2H0v3
							c0,3.726,2.552,6.844,6,7.732V22c0,1.104,0.896,2,2,2s2-0.896,2-2v-0.268c3.448-0.889,6-4.007,6-7.732v-3H15z"/>
					</g>
				</g>
			</g>
		</g>
	</g>
</g>
</svg>
