<?xml version="1.0" encoding="utf-8"?>
<!-- Generator: Adobe Illustrator 17.0.0, SVG Export Plug-In . SVG Version: 6.00 Build 0)  -->
<!DOCTYPE svg PUBLIC "-//W3C//DTD SVG 1.1//EN" "http://www.w3.org/Graphics/SVG/1.1/DTD/svg11.dtd">
<svg version="1.1" id="Layer_1" xmlns="http://www.w3.org/2000/svg" xmlns:xlink="http://www.w3.org/1999/xlink" x="0px" y="0px"
	 width="24px" height="24px" viewBox="0 0 24 24" enable-background="new 0 0 24 24" xml:space="preserve">
<title>Manage</title>
<desc>Created with Sketch.</desc>
<g id="Dashboard">
	<g id="Nav" transform="translate(-43.000000, -915.000000)">
		<g transform="translate(-6.000000, 0.000000)">
			<g id="Nav---Active-Links-and-Icons" transform="translate(0.000000, 80.000000)">
				<g id="Active-Manage-Site" transform="translate(0.000000, 816.000000)">
					<g id="Manage" transform="translate(49.000000, 19.000000)">
						<path id="Fill-1" fill="#285CAD" d="M22.001,13h-2.019c-0.087,0.699-0.263,1.369-0.518,2l-0.046,0.123
							c-0.272,0.641-0.631,1.234-1.053,1.775l1.428,1.393C19.582,18.55,19.359,19,19.123,19h-0.002
							c-0.236,0-0.485,0.496-0.743,0.707l-1.428-1.41c-0.542,0.422-1.135,0.789-1.775,1.062l-0.149,0.05
							c-0.631,0.255-1.025,0.436-2.025,0.522v2.019c0,0.033-0.662,0.051-1,0.051c-0.338,0-1-0.018-1-0.051v-2.019
							c-1-0.087-1.344-0.263-1.975-0.518l-0.11-0.046c-0.641-0.272-1.228-0.631-1.771-1.053l-1.424,1.428
							c-0.257-0.211-0.504-0.433-0.738-0.668c-0.004-0.002-0.005-0.004-0.007-0.008c-0.235-0.234-0.456-0.482-0.667-0.739
							L5.737,16.9c-0.422-0.543-0.78-1.136-1.053-1.776L4.639,15c-0.255-0.631-0.431-1.301-0.518-2H2.102
							c-0.033-0.329-0.051-0.662-0.051-1s0.018-0.671,0.051-1h2.019c0.087-0.699,0.263-1.369,0.518-2l0.046-0.123
							C4.957,8.236,5.316,7.643,5.738,7.1L4.31,5.673c0.211-0.257,0.433-0.505,0.668-0.739C4.98,4.93,4.982,4.928,4.986,4.926
							C5.22,4.691,5.468,4.469,5.725,4.258l1.428,1.428c0.542-0.422,1.135-0.78,1.775-1.053l0.099-0.046
							c0.631-0.255,0.975-0.431,1.975-0.518V2.05c0-0.033,0.662-0.051,1-0.051s1,0.018,1,0.051v2.019
							c1,0.087,1.395,0.263,2.025,0.518l0.136,0.046c0.641,0.272,1.241,0.631,1.782,1.053l1.432-1.428
							c0.257,0.211,0.506,0.433,0.74,0.668c0.004,0.002,0.007,0.004,0.009,0.008c0.235,0.234,0.458,0.482,0.669,0.739L18.367,7.1
							c0.422,0.543,0.78,1.136,1.053,1.776L19.465,9c0.255,0.631,0.431,1.301,0.518,2h2.018c0.033,0.329,0.051,0.662,0.051,1
							S22.034,12.671,22.001,13 M23.052,9h-1.459c-0.178-0.564-0.408-1.104-0.678-1.621l1.036-1.035
							c0.391-0.391,0.391-1.023,0-1.414l-2.829-2.829c-0.39-0.39-1.023-0.391-1.414,0l-1.062,1.036C16.129,2.867,16,2.637,15,2.459
							V1c0-0.553-0.396-1-0.949-1h-4C9.498,0,9,0.447,9,1v1.459C8,2.637,7.921,2.867,7.404,3.137L6.381,2.1
							C5.99,1.709,5.365,1.71,4.975,2.101L2.149,4.93c-0.39,0.39-0.391,1.022,0,1.413L3.187,7.38C2.917,7.897,2.688,8.436,2.51,9
							H1.051C0.498,9,0,9.447,0,10v4c0,0.553,0.498,1,1.051,1H2.51c0.178,0.564,0.408,1.104,0.678,1.621l-1.036,1.035
							c-0.391,0.391-0.39,1.024,0,1.414l2.829,2.829c0.391,0.391,1.023,0.391,1.414,0l1.011-1.036c0.517,0.27,0.595,0.5,1.595,0.678
							V23c0,0.553,0.498,1,1.051,1h4c0.553,0,0.949-0.447,0.949-1v-1.459c1-0.178,1.13-0.408,1.646-0.678l1.049,1.037
							c0.391,0.391,1.029,0.389,1.42-0.001l2.832-2.829c0.391-0.391,0.393-1.022,0.002-1.413l-1.036-1.037
							c0.27-0.517,0.501-1.056,0.679-1.62h1.459c0.553,0,0.949-0.447,0.949-1v-4C24.001,9.447,23.605,9,23.052,9"/>
						<path id="Fill-3" fill="#285CAD" d="M12.052,15c-1.656,0-3-1.344-3-3s1.344-3,3-3s3,1.344,3,3S13.708,15,12.052,15 M12.052,8
							c-2.209,0-4,1.791-4,4s1.791,4,4,4s4-1.791,4-4S14.261,8,12.052,8"/>
					</g>
				</g>
			</g>
		</g>
	</g>
</g>
</svg>
