<?xml version="1.0" encoding="UTF-8"?>
<svg width="24px" height="24px" viewBox="0 0 24 24" version="1.1" xmlns="http://www.w3.org/2000/svg" xmlns:xlink="http://www.w3.org/1999/xlink">
    <!-- Generator: Sketch 52.5 (67469) - http://www.bohemiancoding.com/sketch -->
    <title>Manage</title>
    <desc>Created with Sketch.</desc>
    <g id="Dashboard" stroke="none" stroke-width="1" fill="none" fill-rule="evenodd" opacity="0.498018569">
        <g transform="translate(-43.000000, -915.000000)" fill="#4A4A4A" id="Nav">
            <g transform="translate(-6.000000, 0.000000)">
                <g id="Nav-Icons" transform="translate(49.000000, 106.000000)">
                    <g id="Manage" transform="translate(0.000000, 809.000000)">
                        <path d="M22.001,13 L19.982,13 C19.895,13.699 19.719,14.369 19.464,15 L19.418,15.123 C19.146,15.764 18.787,16.357 18.365,16.898 L19.793,18.291 C19.582,18.55 19.359,19 19.123,19 L19.121,19 C18.885,19 18.636,19.496 18.378,19.707 L16.95,18.297 C16.408,18.719 15.815,19.086 15.175,19.359 L15.026,19.409 C14.395,19.664 14.001,19.845 13.001,19.931 L13.001,21.95 C13.001,21.983 12.339,22.001 12.001,22.001 C11.663,22.001 11.001,21.983 11.001,21.95 L11.001,19.931 C10.001,19.844 9.657,19.668 9.026,19.413 L8.916,19.367 C8.275,19.095 7.688,18.736 7.145,18.314 L5.721,19.742 C5.464,19.531 5.217,19.309 4.983,19.074 C4.979,19.072 4.978,19.07 4.976,19.066 C4.741,18.832 4.52,18.584 4.309,18.327 L5.737,16.9 C5.315,16.357 4.957,15.764 4.684,15.124 L4.639,15 C4.384,14.369 4.208,13.699 4.121,13 L2.102,13 C2.069,12.671 2.051,12.338 2.051,12 C2.051,11.662 2.069,11.329 2.102,11 L4.121,11 C4.208,10.301 4.384,9.631 4.639,9 L4.685,8.877 C4.957,8.236 5.316,7.643 5.738,7.1 L4.31,5.673 C4.521,5.416 4.743,5.168 4.978,4.934 C4.98,4.93 4.982,4.928 4.986,4.926 C5.22,4.691 5.468,4.469 5.725,4.258 L7.153,5.686 C7.695,5.264 8.288,4.906 8.928,4.633 L9.027,4.587 C9.658,4.332 10.002,4.156 11.002,4.069 L11.002,2.05 C11.002,2.017 11.664,1.999 12.002,1.999 C12.34,1.999 13.002,2.017 13.002,2.05 L13.002,4.069 C14.002,4.156 14.397,4.332 15.027,4.587 L15.163,4.633 C15.804,4.905 16.404,5.264 16.945,5.686 L18.377,4.258 C18.634,4.469 18.883,4.691 19.117,4.926 C19.121,4.928 19.124,4.93 19.126,4.934 C19.361,5.168 19.584,5.416 19.795,5.673 L18.367,7.1 C18.789,7.643 19.147,8.236 19.42,8.876 L19.465,9 C19.72,9.631 19.896,10.301 19.983,11 L22.001,11 C22.034,11.329 22.052,11.662 22.052,12 C22.052,12.338 22.034,12.671 22.001,13 M23.052,9 L21.593,9 C21.415,8.436 21.185,7.896 20.915,7.379 L21.951,6.344 C22.342,5.953 22.342,5.321 21.951,4.93 L19.122,2.101 C18.732,1.711 18.099,1.71 17.708,2.101 L16.646,3.137 C16.129,2.867 16,2.637 15,2.459 L15,1 C15,0.447 14.604,0 14.051,0 L10.051,0 C9.498,0 9,0.447 9,1 L9,2.459 C8,2.637 7.921,2.867 7.404,3.137 L6.381,2.1 C5.99,1.709 5.365,1.71 4.975,2.101 L2.149,4.93 C1.759,5.32 1.758,5.952 2.149,6.343 L3.187,7.38 C2.917,7.897 2.688,8.436 2.51,9 L1.051,9 C0.498,9 0,9.447 0,10 L0,14 C0,14.553 0.498,15 1.051,15 L2.51,15 C2.688,15.564 2.918,16.104 3.188,16.621 L2.152,17.656 C1.761,18.047 1.762,18.68 2.152,19.07 L4.981,21.899 C5.372,22.29 6.004,22.29 6.395,21.899 L7.406,20.863 C7.923,21.133 8.001,21.363 9.001,21.541 L9.001,23 C9.001,23.553 9.499,24 10.052,24 L14.052,24 C14.605,24 15.001,23.553 15.001,23 L15.001,21.541 C16.001,21.363 16.131,21.133 16.647,20.863 L17.696,21.9 C18.087,22.291 18.725,22.289 19.116,21.899 L21.948,19.07 C22.339,18.679 22.341,18.048 21.95,17.657 L20.914,16.62 C21.184,16.103 21.415,15.564 21.593,15 L23.052,15 C23.605,15 24.001,14.553 24.001,14 L24.001,10 C24.001,9.447 23.605,9 23.052,9" id="Fill-1"></path>
                        <path d="M12.052,15 C10.396,15 9.052,13.656 9.052,12 C9.052,10.344 10.396,9 12.052,9 C13.708,9 15.052,10.344 15.052,12 C15.052,13.656 13.708,15 12.052,15 M12.052,8 C9.843,8 8.052,9.791 8.052,12 C8.052,14.209 9.843,16 12.052,16 C14.261,16 16.052,14.209 16.052,12 C16.052,9.791 14.261,8 12.052,8" id="Fill-3"></path>
                    </g>
                </g>
            </g>
        </g>
    </g>
</svg>