<?xml version="1.0" encoding="UTF-8"?>
<svg width="24px" height="24px" viewBox="0 0 24 24" version="1.1" xmlns="http://www.w3.org/2000/svg" xmlns:xlink="http://www.w3.org/1999/xlink">
    <!-- Generator: Sketch 52.5 (67469) - http://www.bohemiancoding.com/sketch -->
    <title>Orders</title>
    <desc>Created with Sketch.</desc>
    <g id="Dashboard" stroke="none" stroke-width="1" fill="none" fill-rule="evenodd" opacity="0.498018569">
        <g transform="translate(-43.000000, -714.000000)" fill="#4A4A4A" id="Nav">
            <g transform="translate(-6.000000, 0.000000)">
                <g id="Nav-Icons" transform="translate(49.000000, 106.000000)">
                    <g id="Orders" transform="translate(0.000000, 608.000000)">
                        <path d="M20.25,16 L6.75,16 L5.25,5 L21.75,5 L20.25,16 Z M23,3 L4.891,3 L4.5,0.827 C4.406,0.28 3.928,0 3.375,0 L1,0 C0.447,0 0,0.447 0,1 C0,1.553 0.447,2 1,2 L2.664,2 L3.154,5 L5,17 C5.137,17.506 5.447,18 6,18 L21,18 C21.553,18 21.953,17.406 22,17 L24,4 C24.094,3.453 23.553,3 23,3 Z" id="Fill-1"></path>
                        <path d="M17.5,23 C16.672,23 16,22.328 16,21.5 C16,20.672 16.672,20 17.5,20 C18.328,20 19,20.672 19,21.5 C19,22.328 18.328,23 17.5,23 M17.5,19 C16.119,19 15,20.119 15,21.5 C15,22.881 16.119,24 17.5,24 C18.881,24 20,22.881 20,21.5 C20,20.119 18.881,19 17.5,19" id="Fill-3"></path>
                        <path d="M8.5,23 C7.672,23 7,22.328 7,21.5 C7,20.672 7.672,20 8.5,20 C9.328,20 10,20.672 10,21.5 C10,22.328 9.328,23 8.5,23 M8.5,19 C7.119,19 6,20.119 6,21.5 C6,22.881 7.119,24 8.5,24 C9.881,24 11,22.881 11,21.5 C11,20.119 9.881,19 8.5,19" id="Fill-5"></path>
                        <polygon id="Fill-7" points="19.777 8 19.889 7 7.111 7 7.223 8"></polygon>
                        <polygon id="Fill-9" points="7.444 10 19.556 10 19.667 9 7.333 9"></polygon>
                        <polygon id="Fill-11" points="7.667 12 19.333 12 19.444 11 7.556 11"></polygon>
                        <polygon id="Fill-13" points="7.889 14 19.111 14 19.223 13 7.777 13"></polygon>
                    </g>
                </g>
            </g>
        </g>
    </g>
</svg>