<?xml version="1.0" encoding="UTF-8"?>
<svg width="24px" height="24px" viewBox="0 0 24 24" version="1.1" xmlns="http://www.w3.org/2000/svg" xmlns:xlink="http://www.w3.org/1999/xlink">
    <!-- Generator: Sketch 52.5 (67469) - http://www.bohemiancoding.com/sketch -->
    <title>Reports</title>
    <desc>Created with Sketch.</desc>
    <g id="Dashboard" stroke="none" stroke-width="1" fill="none" fill-rule="evenodd" opacity="0.498018569">
        <g transform="translate(-43.000000, -782.000000)" fill="#4A4A4A" id="Nav">
            <g transform="translate(-6.000000, 0.000000)">
                <g id="Nav-Icons" transform="translate(49.000000, 106.000000)">
                    <g id="Reports" transform="translate(0.000000, 676.000000)">
                        <path d="M2,6 L22,6 L22,2 L2,2 L2,6 Z M2,22 L22,22 L22,7 L2,7 L2,22 Z M22.875,0 L1.125,0 C0.504,0 0,0.504 0,1.125 L0,22.875 C0,23.496 0.504,24 1.125,24 L22.875,24 C23.496,24 24,23.496 24,22.875 L24,1.125 C24,0.504 23.496,0 22.875,0 Z" id="Fill-1"></path>
                        <path d="M4,3 C4.552,3 5,3.448 5,4 C5,4.552 4.552,5 4,5 C3.448,5 3,4.552 3,4 C3,3.448 3.448,3 4,3" id="Fill-3"></path>
                        <path d="M7,3 C7.552,3 8,3.448 8,4 C8,4.552 7.552,5 7,5 C6.448,5 6,4.552 6,4 C6,3.448 6.448,3 7,3" id="Fill-4"></path>
                        <path d="M10,3 C10.552,3 11,3.448 11,4 C11,4.552 10.552,5 10,5 C9.448,5 9,4.552 9,4 C9,3.448 9.448,3 10,3" id="Fill-5"></path>
                        <path d="M11,19 L13,19 L13,13 L11,13 L11,19 Z M10,20 L14,20 L14,12 L10,12 L10,20 Z" id="Fill-6"></path>
                        <path d="M6,19 L8,19 L8,15 L6,15 L6,19 Z M5,20 L9,20 L9,14 L5,14 L5,20 Z" id="Fill-7"></path>
                        <path d="M16,19 L18,19 L18,11 L16,11 L16,19 Z M15,20 L19,20 L19,10 L15,10 L15,20 Z" id="Fill-8"></path>
                    </g>
                </g>
            </g>
        </g>
    </g>
</svg>