<?xml version="1.0" encoding="UTF-8"?>
<svg width="20px" height="24px" viewBox="0 0 20 24" version="1.1" xmlns="http://www.w3.org/2000/svg" xmlns:xlink="http://www.w3.org/1999/xlink">
    <!-- Generator: Sketch 52.5 (67469) - http://www.bohemiancoding.com/sketch -->
    <title>Teleconferences</title>
    <desc>Created with Sketch.</desc>
    <g id="Dashboard" stroke="none" stroke-width="1" fill="none" fill-rule="evenodd" opacity="0.498018569">
        <g transform="translate(-43.000000, -375.000000)" fill="#4A4A4A" id="Nav">
            <g transform="translate(-6.000000, 0.000000)">
                <g id="Nav-Icons" transform="translate(49.000000, 106.000000)">
                    <path d="M19,283 C19,283.553 18.553,284 18,284 L17,284 L17,280 L18,280 C18.553,280 19,280.447 19,281 L19,283 Z M10,292 C9.447,292 9,291.553 9,291 C9,290.447 9.447,290 10,290 C10.553,290 11,290.447 11,291 C11,291.553 10.553,292 10,292 Z M3,284 L2,284 C1.447,284 1,283.553 1,283 L1,281 C1,280.447 1.447,280 2,280 L3,280 L3,284 Z M18,279 L18,277 C18,272.582 14.418,269 10,269 C5.582,269 2,272.582 2,277 L2,279 C0.896,279 0,279.896 0,281 L0,283 C0,284.104 0.896,285 2,285 L4,285 L4,277 C4,273.687 6.687,271 10,271 C13.313,271 16,273.687 16,277 L16,285 L16.922,285 C16.529,287.73 14.564,289.943 11.97,290.703 C11.826,289.74 11.003,289 10,289 C8.896,289 8,289.896 8,291 C8,292.104 8.896,293 10,293 C10.83,293 11.541,292.494 11.844,291.774 C15.055,291.015 17.514,288.328 17.931,285 L18,285 C19.104,285 20,284.104 20,283 L20,281 C20,279.896 19.104,279 18,279 Z" id="Teleconferences"></path>
                </g>
            </g>
        </g>
    </g>
</svg>