<?xml version="1.0" encoding="utf-8"?>
<!-- Generator: Adobe Illustrator 17.0.0, SVG Export Plug-In . SVG Version: 6.00 Build 0)  -->
<!DOCTYPE svg PUBLIC "-//W3C//DTD SVG 1.1//EN" "http://www.w3.org/Graphics/SVG/1.1/DTD/svg11.dtd">
<svg version="1.1" id="Layer_1" xmlns="http://www.w3.org/2000/svg" xmlns:xlink="http://www.w3.org/1999/xlink" x="0px" y="0px"
	 width="20px" height="24px" viewBox="0 0 20 24" enable-background="new 0 0 20 24" xml:space="preserve">
<title>Teleconferences</title>
<desc>Created with Sketch.</desc>
<g id="Dashboard">
	<g id="Nav" transform="translate(-43.000000, -375.000000)">
		<g transform="translate(-6.000000, 0.000000)">
			<g id="Nav---Active-Links-and-Icons" transform="translate(0.000000, 80.000000)">
				<g id="Active-Teleconferences" transform="translate(0.000000, 272.000000)">
					<path id="Teleconferences" fill="#285CAD" d="M68,37c0,0.553-0.447,1-1,1h-1v-4h1c0.553,0,1,0.447,1,1V37z M59,46
						c-0.553,0-1-0.447-1-1s0.447-1,1-1s1,0.447,1,1S59.553,46,59,46z M52,38h-1c-0.553,0-1-0.447-1-1v-2c0-0.553,0.447-1,1-1h1V38z
						 M67,33v-2c0-4.418-3.582-8-8-8s-8,3.582-8,8v2c-1.104,0-2,0.896-2,2v2c0,1.104,0.896,2,2,2h2v-8c0-3.313,2.687-6,6-6
						s6,2.687,6,6v8h0.922c-0.393,2.73-2.358,4.943-4.952,5.703C60.826,43.74,60.003,43,59,43c-1.104,0-2,0.896-2,2s0.896,2,2,2
						c0.83,0,1.541-0.506,1.844-1.226c3.211-0.759,5.67-3.446,6.087-6.774H67c1.104,0,2-0.896,2-2v-2C69,33.896,68.104,33,67,33z"/>
				</g>
			</g>
		</g>
	</g>
</g>
</svg>
