<?xml version="1.0" encoding="UTF-8"?>
<svg width="20px" height="20px" viewBox="0 0 20 20" version="1.1" xmlns="http://www.w3.org/2000/svg" xmlns:xlink="http://www.w3.org/1999/xlink">
    <!-- Generator: Sketch 52.5 (67469) - http://www.bohemiancoding.com/sketch -->
    <title>Page 1</title>
    <desc>Created with Sketch.</desc>
    <g id="Customers" stroke="none" stroke-width="1" fill="none" fill-rule="evenodd">
        <g id="Customers---Manage-Customers" transform="translate(-1271.000000, -403.000000)" fill="#4361A5">
            <g id="Customer-List" transform="translate(383.000000, 116.000000)">
                <g id="Rows" transform="translate(4.000000, 283.000000)">
                    <g id="Row-1">
                        <g id="Action-Icons" transform="translate(787.000000, 4.000000)">
                            <g id="Page-1" transform="translate(97.000000, 0.000000)">
                                <path d="M16.7314405,13.214683 L5.58155172,13.214683 L4.34267519,4.12958843 L17.970317,4.12958843 L16.7314405,13.214683 Z M19.0027141,2.47775306 L4.0395634,2.47775306 L3.71662959,0.683033927 C3.63899333,0.231256952 3.24420467,0 2.78747219,0 L0.825917686,0 C0.369185206,0 0,0.369185206 0,0.825917686 C0,1.28265017 0.369185206,1.65183537 0.825917686,1.65183537 L2.20024472,1.65183537 L2.60494438,4.12958843 L2.61155172,4.12958843 L4.13619577,14.0406007 C4.2493465,14.458515 4.50538098,14.8665184 4.96211346,14.8665184 L17.3508788,14.8665184 C17.8076112,14.8665184 18.1379783,14.3759232 18.1767964,14.0406007 L19.8286318,3.30367075 C19.9062681,2.85189377 19.4594466,2.47775306 19.0027141,2.47775306 Z" id="Fill-1"></path>
                                <path d="M14.4535595,18.9961068 C13.7696997,18.9961068 13.214683,18.4410901 13.214683,17.7572303 C13.214683,17.0733704 13.7696997,16.5183537 14.4535595,16.5183537 C15.1374194,16.5183537 15.692436,17.0733704 15.692436,17.7572303 C15.692436,18.4410901 15.1374194,18.9961068 14.4535595,18.9961068 M14.4535595,15.692436 C13.3129672,15.692436 12.3887653,16.6166379 12.3887653,17.7572303 C12.3887653,18.8978226 13.3129672,19.8220245 14.4535595,19.8220245 C15.5941518,19.8220245 16.5183537,18.8978226 16.5183537,17.7572303 C16.5183537,16.6166379 15.5941518,15.692436 14.4535595,15.692436" id="Fill-3"></path>
                                <path d="M7.02030033,18.9961068 C6.33644049,18.9961068 5.7814238,18.4410901 5.7814238,17.7572303 C5.7814238,17.0733704 6.33644049,16.5183537 7.02030033,16.5183537 C7.70416018,16.5183537 8.25917686,17.0733704 8.25917686,17.7572303 C8.25917686,18.4410901 7.70416018,18.9961068 7.02030033,18.9961068 M7.02030033,15.692436 C5.87970801,15.692436 4.95550612,16.6166379 4.95550612,17.7572303 C4.95550612,18.8978226 5.87970801,19.8220245 7.02030033,19.8220245 C8.16089266,19.8220245 9.08509455,18.8978226 9.08509455,17.7572303 C9.08509455,16.6166379 8.16089266,15.692436 7.02030033,15.692436" id="Fill-5"></path>
                                <path d="M8.25917686,8.25917686 L10.7369299,8.25917686 L10.7369299,5.7814238 L11.5628476,5.7814238 L11.5628476,8.25917686 L14.0406007,8.25917686 L14.0406007,9.08509455 L11.5628476,9.08509455 L11.5628476,11.5628476 L10.7369299,11.5628476 L10.7369299,9.08509455 L8.25917686,9.08509455 L8.25917686,8.25917686 Z M8.25917686,9.91101224 L9.91101224,9.91101224 L9.91101224,11.5628476 C9.91101224,12.0195801 10.2801974,12.3887653 10.7369299,12.3887653 L11.5628476,12.3887653 C12.0195801,12.3887653 12.3887653,12.0195801 12.3887653,11.5628476 L12.3887653,9.91101224 L14.0406007,9.91101224 C14.4973331,9.91101224 14.8665184,9.54182703 14.8665184,9.08509455 L14.8665184,8.25917686 C14.8665184,7.80244438 14.4973331,7.43325918 14.0406007,7.43325918 L12.3887653,7.43325918 L12.3887653,5.7814238 C12.3887653,5.32469132 12.0195801,4.95550612 11.5628476,4.95550612 L10.7369299,4.95550612 C10.2801974,4.95550612 9.91101224,5.32469132 9.91101224,5.7814238 L9.91101224,7.43325918 L8.25917686,7.43325918 C7.80244438,7.43325918 7.43325918,7.80244438 7.43325918,8.25917686 L7.43325918,9.08509455 C7.43325918,9.54182703 7.80244438,9.91101224 8.25917686,9.91101224 Z" id="Fill-7"></path>
                            </g>
                        </g>
                    </g>
                </g>
            </g>
        </g>
    </g>
</svg>