<?xml version="1.0" encoding="UTF-8"?>
<svg width="17px" height="20px" viewBox="0 0 17 20" version="1.1" xmlns="http://www.w3.org/2000/svg" xmlns:xlink="http://www.w3.org/1999/xlink">
    <!-- Generator: Sketch 52.5 (67469) - http://www.bohemiancoding.com/sketch -->
    <title>Page 1</title>
    <desc>Created with Sketch.</desc>
    <g id="Customers" stroke="none" stroke-width="1" fill="none" fill-rule="evenodd">
        <g id="Customers---Notes" transform="translate(-1244.000000, -415.000000)" fill="#4361A5">
            <g id="Order-List" transform="translate(383.000000, 116.000000)">
                <g id="Row-1-Copy" transform="translate(4.000000, 297.000000)">
                    <g id="Action-Icons" transform="translate(749.000000, 2.000000)">
                        <path d="M109.666667,5 L123,5 L123,3.33333333 L109.666667,3.33333333 L109.666667,5 Z M120.5,18.3333333 L122.166667,18.3333333 L122.166667,6.66666667 L120.5,6.66666667 L120.5,18.3333333 Z M118,18.3333333 L119.666667,18.3333333 L119.666667,6.66666667 L118,6.66666667 L118,18.3333333 Z M115.5,18.3333333 L117.166667,18.3333333 L117.166667,6.66666667 L115.5,6.66666667 L115.5,18.3333333 Z M113,18.3333333 L114.666667,18.3333333 L114.666667,6.66666667 L113,6.66666667 L113,18.3333333 Z M110.5,18.3333333 L112.166667,18.3333333 L112.166667,6.66666667 L110.5,6.66666667 L110.5,18.3333333 Z M114.666667,1.66666667 L118,1.66666667 L118,0.833333333 L114.666667,0.833333333 L114.666667,1.66666667 Z M123.833333,1.66666667 L118.833333,1.66666667 L118.833333,0.833333333 C118.833333,0.3725 118.485833,0 118.025,0 L114.6925,0 C114.231667,0 113.833333,0.3725 113.833333,0.833333333 L113.833333,1.66666667 L108.833333,1.66666667 C108.3725,1.66666667 108,2.03916667 108,2.5 L108,5.83333333 C108,6.29416667 108.295,6.66666667 108.833333,6.66666667 L108.833333,19.1666667 C108.833333,19.6275 109.2325,20 109.6925,20 L123.053333,20 C123.514167,20 123.833333,19.6275 123.833333,19.1666667 L123.833333,6.66666667 C124.666667,6.66666667 124.666667,6.29416667 124.666667,5.83333333 L124.666667,2.5 C124.666667,2.03916667 124.294167,1.66666667 123.833333,1.66666667 Z" id="Page-1"></path>
                    </g>
                </g>
            </g>
        </g>
    </g>
</svg>