<?xml version="1.0" encoding="UTF-8"?>
<svg width="20px" height="20px" viewBox="0 0 20 20" version="1.1" xmlns="http://www.w3.org/2000/svg" xmlns:xlink="http://www.w3.org/1999/xlink">
    <!-- Generator: Sketch 52.5 (67469) - http://www.bohemiancoding.com/sketch -->
    <title>Fill 1</title>
    <desc>Created with Sketch.</desc>
    <g id="Bundles" stroke="none" stroke-width="1" fill="none" fill-rule="evenodd">
        <g id="Bundles---Manage-Bundles" transform="translate(-1257.000000, -403.000000)" fill="#4361A5">
            <g id="Course-List" transform="translate(383.000000, 116.000000)">
                <g id="Rows" transform="translate(4.000000, 283.000000)">
                    <g id="Row-1">
                        <g id="Action-Icons" transform="translate(838.000000, 4.000000)">
                            <path d="M48.2901091,7.21336345 L44.7948365,3.72033085 L46.5424728,1.97381455 L50.0377454,5.4660123 L48.2901091,7.21336345 Z M37.6380485,17.7049841 L34.2964877,14.3655648 L44.2125695,4.30138981 L47.7078421,7.79442241 L37.6380485,17.7049841 Z M36.8636418,18.5498572 L33.4619329,18.5415086 L33.4602621,15.1311266 L33.6707804,14.990871 L37.0123413,18.3302903 L36.8636418,18.5498572 Z M51.7853817,4.88411848 L47.1255751,0.229802818 C46.8432133,-0.0532129686 46.3687116,-0.0991299841 46.0404033,0.229802818 L32,14.3380146 L32,20 L37.6656164,20 L51.7845464,5.96859491 C52.057719,5.69726709 52.0852868,5.18550108 51.7853817,4.88411848 Z" id="Fill-1"></path>
                        </g>
                    </g>
                </g>
            </g>
        </g>
    </g>
</svg>