<?xml version="1.0" encoding="UTF-8"?>
<svg width="20px" height="13px" viewBox="0 0 20 13" version="1.1" xmlns="http://www.w3.org/2000/svg" xmlns:xlink="http://www.w3.org/1999/xlink">
    <!-- Generator: Sketch 52.5 (67469) - http://www.bohemiancoding.com/sketch -->
    <title>Page 1</title>
    <desc>Created with Sketch.</desc>
    <g id="Bundles" stroke="none" stroke-width="1" fill="none" fill-rule="evenodd">
        <g id="Bundles---Manage-Bundles" transform="translate(-1225.000000, -406.000000)" fill="#4361A5">
            <g id="Course-List" transform="translate(383.000000, 116.000000)">
                <g id="Rows" transform="translate(4.000000, 283.000000)">
                    <g id="Row-1">
                        <g id="Action-Icons" transform="translate(838.000000, 4.000000)">
                            <g id="Page-1" transform="translate(0.000000, 3.000000)">
                                <path d="M9.99916667,11.375 C4.94416667,11.375 2.58333333,7.905625 1.83416667,6.5024375 C2.58333333,5.1065625 4.95916667,1.6241875 10,1.625 C15.0558333,1.625 17.4166667,5.0935625 18.1658333,6.49675 C17.4158333,7.8934375 15.0408333,11.3741875 9.99916667,11.375 M10,0 C2.5,-0.0008125 0,6.5 0,6.5 C0,6.5 2.5,13 10,13 C17.5,12.9991875 20,6.5 20,6.5 C20,6.5 17.5,0 10,0" id="Fill-1"></path>
                                <path d="M10,9.75 C8.15916667,9.75 6.66666667,8.2948125 6.66666667,6.5 C6.66666667,4.7051875 8.15916667,3.25 10,3.25 C11.8408333,3.25 13.3333333,4.7051875 13.3333333,6.5 C13.3333333,8.2948125 11.8408333,9.75 10,9.75 M10,2.4375 C7.69833333,2.4375 5.83333333,4.255875 5.83333333,6.5 C5.83333333,8.744125 7.69833333,10.5625 10,10.5625 C12.3016667,10.5625 14.1666667,8.744125 14.1666667,6.5 C14.1666667,4.255875 12.3016667,2.4375 10,2.4375" id="Fill-3"></path>
                                <path d="M10,4.0625 C11.3808333,4.0625 12.5,5.1536875 12.5,6.5 C12.5,7.8463125 11.3808333,8.9375 10,8.9375 C8.61916667,8.9375 7.5,7.8463125 7.5,6.5 C7.5,5.1536875 8.61916667,4.0625 10,4.0625" id="Fill-5"></path>
                            </g>
                        </g>
                    </g>
                </g>
            </g>
        </g>
    </g>
</svg>