<?xml version="1.0" encoding="UTF-8"?>
<svg width="20px" height="18px" viewBox="0 0 20 18" version="1.1" xmlns="http://www.w3.org/2000/svg" xmlns:xlink="http://www.w3.org/1999/xlink">
    <!-- Generator: Sketch 53 (72520) - https://sketchapp.com -->
    <title>Page 1</title>
    <desc>Created with Sketch.</desc>
    <g id="Unlimited-CLE-Landing-Page" stroke="none" stroke-width="1" fill="none" fill-rule="evenodd">
        <g id="Landing-Pages---Manage-Unlimited-CLE" transform="translate(-1225.000000, -415.000000)" fill="#4361A5">
            <g id="Course-List" transform="translate(383.000000, 116.000000)">
                <g id="Rows" transform="translate(2.000000, 265.000000)">
                    <g id="Row-1" transform="translate(2.000000, 0.000000)">
                        <g id="Action-Icons" transform="translate(838.000000, 34.000000)">
                            <g id="Page-1">
                                <path d="M9.99916667,14.375 C4.94416667,14.375 2.58333333,10.905625 1.83416667,9.5024375 C2.58333333,8.1065625 4.95916667,4.6241875 10,4.625 C15.0558333,4.625 17.4166667,8.0935625 18.1658333,9.49675 C17.4158333,10.8934375 15.0408333,14.3741875 9.99916667,14.375 M10,3 C2.5,2.9991875 0,9.5 0,9.5 C0,9.5 2.5,16 10,16 C17.5,15.9991875 20,9.5 20,9.5 C20,9.5 17.5,3 10,3" id="Fill-1"></path>
                                <path d="M10,12.75 C8.15916667,12.75 6.66666667,11.2948125 6.66666667,9.5 C6.66666667,7.7051875 8.15916667,6.25 10,6.25 C11.8408333,6.25 13.3333333,7.7051875 13.3333333,9.5 C13.3333333,11.2948125 11.8408333,12.75 10,12.75 M10,5.4375 C7.69833333,5.4375 5.83333333,7.255875 5.83333333,9.5 C5.83333333,11.744125 7.69833333,13.5625 10,13.5625 C12.3016667,13.5625 14.1666667,11.744125 14.1666667,9.5 C14.1666667,7.255875 12.3016667,5.4375 10,5.4375" id="Fill-3"></path>
                                <path d="M12.5,9.5 C12.5,10.8463125 11.3808333,11.9375 10,11.9375 C8.61916667,11.9375 7.5,10.8463125 7.5,9.5 C7.5,8.1536875 8.61916667,7.0625 10,7.0625 C11.3808333,7.0625 12.5,8.1536875 12.5,9.5 Z" id="Fill-5"></path>
                                <rect id="Rectangle" transform="translate(10.259756, 9.264087) rotate(34.000000) translate(-10.259756, -9.264087) " x="9.25975596" y="-0.235912585" width="2" height="19"></rect>
                            </g>
                        </g>
                    </g>
                </g>
            </g>
        </g>
    </g>
</svg>