<?xml version="1.0" encoding="utf-8"?>
<!-- Generator: Adobe Illustrator 17.0.0, SVG Export Plug-In . SVG Version: 6.00 Build 0)  -->
<!DOCTYPE svg PUBLIC "-//W3C//DTD SVG 1.1//EN" "http://www.w3.org/Graphics/SVG/1.1/DTD/svg11.dtd">
<svg version="1.1" id="Layer_1" xmlns="http://www.w3.org/2000/svg" xmlns:xlink="http://www.w3.org/1999/xlink" x="0px" y="0px"
	 width="18px" height="18px" viewBox="0 0 18 18" enable-background="new 0 0 18 18" xml:space="preserve">
<title>Icon</title>
<desc>Created with Sketch.</desc>
<g id="Live-Lecture-Tracker">
	<g id="Customers---Live-Lecture-Tracker---Post-Edit" transform="translate(-1216.000000, -855.000000)">
		<g id="Content" transform="translate(383.000000, 116.000000)">
			<g id="Past" transform="translate(0.000000, 530.000000)">
				<g id="Courses" transform="translate(1.000000, 150.000000)">
					<g id="Row-1" transform="translate(2.000000, 35.000000)">
						<g id="Icon" transform="translate(830.000000, 24.000000)">
							<path id="Fill-1" fill="#285CAD" d="M9,1.5c2.253,0,4.115,1.658,4.443,3.82c-1.081-0.484-2.036-1.197-2.773-2.107
								C10.5,3,10.395,2.883,10.22,2.594c-0.201,0.242-0.318,0.382-0.529,0.561c-1.333,1.28-3.135,2.074-5.123,2.092
								C4.927,3.121,6.772,1.5,9,1.5z M6.515,9.75C5.302,8.944,4.5,7.566,4.5,6c2.186,0,4.166-0.856,5.642-2.243
								c0.884,1.067,2.035,1.897,3.347,2.408c-0.056,1.496-0.834,2.807-2.004,3.584h2.194C14.504,8.722,15,7.42,15,6
								c0-3.313-2.686-6-6-6S3,2.687,3,6c0,1.42,0.496,2.722,1.32,3.75H6.515z"/>
							<path id="Fill-3" fill="#285CAD" d="M16.5,16.5h-15V15c0-1.657,1.343-3,3-3h9c1.657,0,3,1.343,3,3V16.5z M13.5,10.5h-9
								C2.015,10.5,0,12.515,0,15v2.25C0,17.665,0.335,18,0.75,18h16.5c0.415,0,0.75-0.335,0.75-0.75V15
								C18,12.515,15.985,10.5,13.5,10.5z"/>
						</g>
					</g>
				</g>
			</g>
		</g>
	</g>
</g>
</svg>
