<?xml version="1.0" encoding="UTF-8"?>
<svg width="16px" height="22px" viewBox="0 0 16 22" version="1.1" xmlns="http://www.w3.org/2000/svg" xmlns:xlink="http://www.w3.org/1999/xlink">
    <!-- Generator: Sketch 52.5 (67469) - http://www.bohemiancoding.com/sketch -->
    <title>Page 1</title>
    <desc>Created with Sketch.</desc>
    <g id="Dashboard" stroke="none" stroke-width="1" fill="none" fill-rule="evenodd" opacity="0.497905344">
        <g id="Dashboard---User-Dropdown" transform="translate(-1137.000000, -102.000000)" fill="#000000">
            <g id="Header" transform="translate(-26.000000, 0.000000)">
                <g id="User" transform="translate(1041.000000, 5.000000)">
                    <g id="Group-2" transform="translate(100.000000, 0.000000)">
                        <g id="Page-1" transform="translate(22.000000, 97.000000)">
                            <path d="M1.77777778,19.5555556 L14.2222222,19.5555556 L14.2222222,8.88888889 L1.77777778,8.88888889 L1.77777778,19.5555556 Z M10.6666667,7.11111111 L5.33333333,7.11111111 L5.33333333,5.33333333 C5.33333333,3.86133333 6.528,2.66666667 8,2.66666667 C9.472,2.66666667 10.6666667,3.86133333 10.6666667,5.33333333 L10.6666667,7.11111111 Z M3.55555556,5.33333333 C3.55555556,2.87822222 5.54488889,0.888888889 8,0.888888889 C10.4551111,0.888888889 12.4444444,2.87822222 12.4444444,5.33333333 L12.4444444,7.11111111 L11.5555556,7.11111111 L11.5555556,5.33333333 C11.5555556,3.36977778 9.96355556,1.77777778 8,1.77777778 C6.03644444,1.77777778 4.44444444,3.36977778 4.44444444,5.33333333 L4.44444444,7.11111111 L3.55555556,7.11111111 L3.55555556,5.33333333 Z M15.1111111,7.11111111 L13.3333333,7.11111111 L13.3333333,5.33333333 C13.3333333,2.38844444 10.9448889,0 8,0 C5.05511111,0 2.66666667,2.38844444 2.66666667,5.33333333 L2.66666667,7.11111111 L0.888888889,7.11111111 C0.397333333,7.11111111 0,7.50844444 0,8 L0,20.4444444 C0,20.936 0.397333333,21.3333333 0.888888889,21.3333333 L15.1111111,21.3333333 C15.6026667,21.3333333 16,20.936 16,20.4444444 L16,8 C16,7.50844444 15.6026667,7.11111111 15.1111111,7.11111111 Z" id="Fill-1"></path>
                            <path d="M8,13.3333333 C8.49155556,13.3333333 8.88888889,13.7306667 8.88888889,14.2222222 C8.88888889,14.7137778 8.49155556,15.1111111 8,15.1111111 C7.50844444,15.1111111 7.11111111,14.7137778 7.11111111,14.2222222 C7.11111111,13.7306667 7.50844444,13.3333333 8,13.3333333 M8,16 C8.98133333,16 9.77777778,15.2035556 9.77777778,14.2222222 C9.77777778,13.2408889 8.98133333,12.4444444 8,12.4444444 C7.01866667,12.4444444 6.22222222,13.2408889 6.22222222,14.2222222 C6.22222222,15.2035556 7.01866667,16 8,16" id="Fill-3"></path>
                        </g>
                    </g>
                </g>
            </g>
        </g>
    </g>
</svg>