<?xml version="1.0" encoding="UTF-8"?>
<svg width="18px" height="16px" viewBox="0 0 18 16" version="1.1" xmlns="http://www.w3.org/2000/svg" xmlns:xlink="http://www.w3.org/1999/xlink">
    <!-- Generator: Sketch 52.5 (67469) - http://www.bohemiancoding.com/sketch -->
    <title>Double Arrow</title>
    <desc>Created with Sketch.</desc>
    <g id="Bundles" stroke="none" stroke-width="1" fill="none" fill-rule="evenodd" opacity="0.801573822">
        <g id="Bundles---Manage-Bundles---Search" transform="translate(-949.000000, -1705.000000)" fill="#9B9B9B">
            <g id="Course-List" transform="translate(383.000000, 116.000000)">
                <g id="Page-Numbers" transform="translate(508.000000, 1574.000000)">
                    <g id="Left-Arrows">
                        <g id="Double-Arrow" transform="translate(58.280000, 15.000000)">
                            <g id="Page-1-Copy-2">
                                <path d="M1.50816,12.9816 L6.80416,7.6856 L1.50816,2.3896 L2.39072,1.5064 L8.56928,7.6856 L2.39072,13.86416 L1.50816,12.9816 Z M2.83168,15.18896 L9.89344,8.1272 C10.13792,7.88336 10.13728,7.48848 9.89344,7.24464 L2.83168,0.18288 C2.58784,-0.06096 2.19296,-0.06096 1.94912,0.18288 L0.18336,1.94864 C-0.06112,2.19248 -0.06048,2.58736 0.18336,2.8312 L5.0384,7.68624 L0.18336,12.54128 C-0.06112,12.78512 -0.06112,13.18 0.18336,13.42384 L1.94912,15.1896 C2.19296,15.43216 2.58784,15.43216 2.83168,15.18896 Z" id="Fill-1"></path>
                            </g>
                            <g id="Page-1-Copy-3" transform="translate(7.040000, 0.000000)">
                                <path d="M1.50816,12.9816 L6.80416,7.6856 L1.50816,2.3896 L2.39072,1.5064 L8.56928,7.6856 L2.39072,13.86416 L1.50816,12.9816 Z M2.83168,15.18896 L9.89344,8.1272 C10.13792,7.88336 10.13728,7.48848 9.89344,7.24464 L2.83168,0.18288 C2.58784,-0.06096 2.19296,-0.06096 1.94912,0.18288 L0.18336,1.94864 C-0.06112,2.19248 -0.06048,2.58736 0.18336,2.8312 L5.0384,7.68624 L0.18336,12.54128 C-0.06112,12.78512 -0.06112,13.18 0.18336,13.42384 L1.94912,15.1896 C2.19296,15.43216 2.58784,15.43216 2.83168,15.18896 Z" id="Fill-1"></path>
                            </g>
                        </g>
                    </g>
                </g>
            </g>
        </g>
    </g>
</svg>