<?xml version="1.0" encoding="UTF-8"?>
<svg width="18px" height="18px" viewBox="0 0 18 18" version="1.1" xmlns="http://www.w3.org/2000/svg" xmlns:xlink="http://www.w3.org/1999/xlink">
    <!-- Generator: Sketch 52.5 (67469) - http://www.bohemiancoding.com/sketch -->
    <title>Page 1</title>
    <desc>Created with Sketch.</desc>
    <g id="Dashboard" stroke="none" stroke-width="1" fill="none" fill-rule="evenodd" opacity="0.504132699">
        <g id="Dashboard---User-Dropdown" transform="translate(-1136.000000, -147.000000)" fill="#000000">
            <g id="Header" transform="translate(-26.000000, 0.000000)">
                <g id="User" transform="translate(1041.000000, 5.000000)">
                    <g id="Group-2" transform="translate(100.000000, 0.000000)">
                        <g id="Page-1" transform="translate(21.000000, 142.000000)">
                            <path d="M8.99925,1.49925 C13.1415,1.49925 16.50075,4.85775 16.5,8.99925 C16.5,13.1415 13.14225,16.5 9,16.5 C4.8585,16.5 1.5,13.1415 1.5,9 C1.5,4.85775 4.8585,1.49925 8.99925,1.49925 M8.99925,17.99925 C13.971,18 18,13.97025 18,9 C17.99925,4.02975 13.97025,0 9,0 C4.029,0 0.00075,4.02975 0,9 C0.00075,13.97025 4.0305,17.9985 8.99925,17.99925" id="Fill-1"></path>
                            <path d="M10.22475,4.92075 L11.28525,5.982 L8.103,9.1635 L11.28525,12.345 L10.22475,13.40625 L5.982,9.1635 L10.22475,4.92075 Z M5.352,9.59475 L9.59475,13.83675 C9.888,14.13 10.5255,14.16525 10.81875,13.872 L11.88,12.8115 C12.17325,12.5175 12.009,12.009 11.71575,11.71575 L9.16425,9.1635 L11.88,6.44775 C12.17325,6.1545 12.00975,5.6445 11.71575,5.352 L10.65525,4.2915 C10.362,3.9975 10.05075,4.0335 9.75825,4.32675 L5.51625,8.56875 C5.22225,8.86275 5.06025,9.30225 5.352,9.59475 Z" id="Fill-3"></path>
                        </g>
                    </g>
                </g>
            </g>
        </g>
    </g>
</svg>